# This file uses centimeters as units for non-parametric coordinates.

mtllib Mushroom.mtl
g default
v -0.249358 0.131655 0.211343
v 0.281433 0.131655 0.211343
v -0.315449 3.360020 0.181169
v 0.315449 3.360020 0.181169
v -0.315449 3.360020 -0.181169
v 0.315449 3.360020 -0.181169
v -0.249358 0.131655 -0.200213
v 0.281433 0.131655 -0.200213
v 0.369951 1.958684 0.351801
v -0.369951 1.958684 0.351801
v -0.369951 1.958684 -0.351801
v 0.369951 1.958684 -0.351801
v 1.287096 1.860541 1.321304
v -1.287096 1.860541 1.321304
v -1.287096 1.860541 -1.321304
v 1.287096 1.860541 -1.321304
v 0.003562 0.131655 -0.254161
v 0.016037 0.131655 0.255935
v 0.000000 1.958684 0.351801
v -0.000000 1.860541 1.321304
v 0.000000 3.360020 0.181169
v 0.000000 3.360020 -0.181169
v -0.000000 1.860541 -1.321304
v 0.000000 1.958684 -0.351801
v -0.249358 0.131655 0.005565
v -0.369951 1.958684 0.000000
v -1.287096 1.860541 0.000000
v -0.315449 3.360020 0.000000
v 0.000000 3.360020 0.000000
v 0.315449 3.360020 0.000000
v 1.287096 1.860541 0.000000
v 0.369951 1.958684 0.000000
v 0.281433 0.131655 0.005565
v 0.000000 0.131655 0.000000
v 0.839097 2.680471 0.731688
v -0.000000 2.680471 0.731688
v -0.839097 2.680471 0.731688
v -0.839097 2.680471 0.000000
v -0.839097 2.680471 -0.731688
v -0.000000 2.680471 -0.731688
v 0.839097 2.680471 -0.731688
v 0.839097 2.680471 0.000000
v 0.435657 1.385743 0.445250
v 0.000000 1.385743 0.513114
v -0.435657 1.385743 0.445250
v -0.435657 1.385743 0.000000
v -0.435657 1.385743 -0.445250
v 0.000000 1.385743 -0.445250
v 0.435657 1.385743 -0.445250
v 0.435657 1.385743 0.000000
v 0.435657 0.457334 0.454171
v 0.000000 0.457334 0.523395
v -0.435657 0.457334 0.454171
v -0.435657 0.457334 0.000000
v -0.435657 0.457334 -0.454171
v 0.000000 0.457334 -0.454171
v 0.435657 0.457334 -0.454171
v 0.435657 0.457334 0.000000
vt 0.161616 0.587123
vt 0.161616 0.503526
vt 0.192329 0.521072
vt 0.192329 0.587123
vt 0.111847 0.587123
vt 0.111847 0.501851
vt 0.161616 0.670720
vt 0.192329 0.653175
vt 0.111847 0.672395
vt 0.265248 0.587123
vt 0.265248 0.503526
vt 0.295961 0.521072
vt 0.295961 0.587123
vt 0.215479 0.587123
vt 0.215479 0.501851
vt 0.265248 0.670720
vt 0.295961 0.653175
vt 0.198020 0.588168
vt 0.198020 0.549533
vt 0.215479 0.672395
vt 0.198020 0.626803
vt 0.335093 0.626803
vt 0.382731 0.635176
vt 0.379852 0.685392
vt 0.301652 0.672395
vt 0.335093 0.588168
vt 0.379852 0.587123
vt 0.430369 0.626803
vt 0.458052 0.672395
vt 0.301652 0.587123
vt 0.335093 0.549533
vt 0.380492 0.539404
vt 0.430369 0.588168
vt 0.301652 0.501851
vt 0.379852 0.501851
vt 0.430369 0.549533
vt 0.458052 0.501851
vt 0.176257 0.250070
vt 0.232880 0.250070
vt 0.232880 0.284085
vt 0.176257 0.284085
vt 0.176257 0.216055
vt 0.232880 0.216055
vt 0.289503 0.250070
vt 0.289503 0.284085
vt 0.232880 0.387447
vt 0.082263 0.387447
vt 0.082263 0.250070
vt 0.082263 0.112694
vt 0.232880 0.112694
vt 0.289503 0.216055
vt 0.383497 0.250070
vt 0.383497 0.387447
vt 0.232880 0.498149
vt 0.001848 0.498149
vt 0.001848 0.250070
vt 0.001848 0.001992
vt 0.232880 0.001992
vt 0.383497 0.112694
vt 0.463912 0.250070
vt 0.463912 0.498149
vt 0.463912 0.001992
vt 0.628370 0.815981
vt 0.694776 0.815981
vt 0.694776 0.998008
vt 0.463743 0.998008
vt 0.761181 0.815981
vt 0.925808 0.998008
vt 0.463743 0.749930
vt 0.628370 0.749930
vt 0.761181 0.749930
vt 0.925808 0.749930
vt 0.628370 0.683878
vt 0.463743 0.501851
vt 0.761181 0.683878
vt 0.925808 0.501851
vt 0.694776 0.501851
vt 0.694776 0.683878
vt 0.001848 0.806559
vt 0.001848 0.740153
vt 0.032561 0.740153
vt 0.032561 0.818353
vt 0.032561 0.661954
vt 0.001848 0.673748
vt 0.082330 0.740153
vt 0.082330 0.818353
vt 0.082330 0.661954
vt 0.075442 0.580051
vt 0.025673 0.580051
vt 0.025673 0.501851
vt 0.075442 0.501851
vt 0.025673 0.658251
vt 0.075442 0.658251
vt 0.106155 0.580051
vt 0.106155 0.513645
vt 0.106155 0.646457
vt 0.694776 0.815981
vt 0.694776 0.998008
vn -0.123731 -0.635499 0.762123
vn 0.003897 -0.636658 0.771136
vn -0.001244 -0.157804 0.987470
vn -0.154939 -0.128516 0.979529
vn 0.000000 1.000000 0.000000
vn 0.000000 1.000000 0.000000
vn 0.000000 1.000000 0.000000
vn 0.000000 1.000000 0.000000
vn -0.011580 -0.098245 -0.995095
vn -0.000165 -0.148659 -0.988889
vn 0.000239 -0.582730 -0.812666
vn -0.063460 -0.583016 -0.809979
vn 0.000000 -1.000000 0.000000
vn 0.000000 -1.000000 -0.000000
vn 0.000000 -1.000000 0.000000
vn 0.000000 -1.000000 0.000000
vn 0.903786 -0.427985 0.000000
vn 0.903786 -0.427985 0.000000
vn 0.999062 -0.043293 0.000000
vn 0.995335 -0.096485 0.000000
vn -0.868017 -0.496534 0.000000
vn -0.868017 -0.496534 0.000000
vn -0.993214 -0.116303 0.000000
vn -0.998342 -0.057555 0.000000
vn -0.020777 -0.989825 0.140765
vn 0.000000 -0.980756 0.195240
vn 0.000000 -0.217876 0.975976
vn 0.000000 -0.075027 0.997181
vn -0.150589 -0.988596 0.000000
vn -0.193593 -0.981082 0.000000
vn -0.926975 -0.375123 0.000000
vn -0.904251 -0.427001 0.000000
vn 0.000000 -0.075027 -0.997181
vn 0.000000 -0.217876 -0.975976
vn 0.000000 -0.981471 -0.191610
vn 0.000000 -0.990345 -0.138627
vn 0.193593 -0.981082 0.000000
vn 0.150589 -0.988597 0.000000
vn 0.904251 -0.427001 0.000000
vn 0.926975 -0.375123 0.000000
vn 0.000000 0.598643 0.801016
vn 0.000000 0.591156 0.806557
vn -0.854933 0.518738 0.000000
vn -0.868876 0.495029 0.000000
vn 0.000000 0.591156 -0.806557
vn 0.000000 0.598643 -0.801016
vn 0.868876 0.495029 0.000000
vn 0.854933 0.518738 0.000000
vn 0.000000 -1.000000 -0.000000
vn 0.000000 -1.000000 0.000000
vn 0.124691 -0.628150 0.768036
vn 0.154871 -0.134191 0.978779
vn 0.020777 -0.989825 0.140765
vn 0.000000 -0.075027 0.997181
vn 0.000000 0.591156 0.806557
vn 0.000000 1.000000 0.000000
vn 0.000000 1.000000 0.000000
vn 0.000000 0.591156 -0.806557
vn 0.000000 -0.075027 -0.997181
vn 0.000000 -0.990345 -0.138627
vn 0.012316 -0.108389 -0.994032
vn 0.061404 -0.580226 -0.812137
vn -0.868017 -0.496534 0.000000
vn -0.998244 -0.059238 0.000000
vn -0.150589 -0.988596 0.000000
vn -0.904251 -0.427001 0.000000
vn -0.868876 0.495029 0.000000
vn 0.000000 1.000000 0.000000
vn 0.000000 1.000000 0.000000
vn 0.000000 1.000000 0.000000
vn 0.904251 -0.427001 0.000000
vn 0.868876 0.495029 0.000000
vn 0.150589 -0.988597 0.000000
vn 0.903786 -0.427985 0.000000
vn 0.999002 -0.044664 0.000000
vn 0.000000 -1.000000 0.000000
vn 0.000000 -1.000000 0.000000
vn 0.000000 -1.000000 0.000000
vn 0.000000 0.629480 0.777017
vn 0.000000 0.629480 0.777017
vn 0.000000 0.629480 0.777017
vn -0.792106 0.610383 0.000000
vn -0.792106 0.610383 0.000000
vn -0.792106 0.610383 0.000000
vn 0.000000 0.629480 -0.777017
vn 0.000000 0.629480 -0.777017
vn 0.000000 0.629480 -0.777017
vn 0.792106 0.610383 0.000000
vn 0.792106 0.610383 0.000000
vn 0.792106 0.610383 0.000000
vn 0.000000 0.084898 0.996390
vn 0.131847 0.080231 0.988018
vn -0.131847 0.080231 0.988018
vn -0.999179 0.040511 0.000000
vn -0.999524 0.030861 0.000000
vn -0.999524 0.030861 0.000000
vn 0.000000 0.065233 -0.997870
vn 0.000000 0.057418 -0.998350
vn 0.000000 0.057418 -0.998350
vn 0.999179 0.040511 0.000000
vn 0.999524 0.030861 0.000000
vn 0.999524 0.030861 0.000000
s 1
g pCube1
usemtl initialShadingGroup
f 1/22/1 18/23/2 52/24/3 53/25/4
s 2
f 28/38/5 29/39/6 22/40/7 5/41/8
s 3
f 55/34/9 56/35/10 17/32/11 7/31/12
s 4
f 7/31/13 17/32/14 34/27/15 25/26/16
s 5
f 33/18/17 8/19/18 57/15/19 58/14/20
s 6
f 7/31/21 25/26/22 54/30/23 55/34/24
s 1
f 10/63/25 19/64/26 20/98/27 14/66/28
s 6
f 11/73/29 26/70/30 27/69/31 15/74/32
s 3
f 15/74/33 23/77/34 24/78/35 11/73/36
s 5
f 32/71/37 12/75/38 16/76/39 31/72/40
s 1
f 14/57/28 20/58/27 36/50/41 37/49/42
s 6
f 15/55/32 27/56/31 38/48/43 39/47/44
s 3
f 39/47/45 40/46/46 23/54/34 15/55/33
s 5
f 31/60/40 16/61/39 41/53/47 42/52/48
s 4
f 17/32/14 8/36/49 33/33/50 34/27/15
s 1
f 52/24/3 18/23/2 2/28/51 51/29/52
f 20/65/27 19/97/26 9/67/53 13/68/54
f 36/50/41 20/58/27 13/62/54 35/59/55
s 2
f 22/40/7 29/39/6 30/44/56 6/45/57
s 3
f 23/54/34 40/46/46 41/53/58 16/61/59
f 24/78/35 23/77/34 16/76/59 12/75/60
f 17/32/11 56/35/10 57/37/61 8/36/62
s 6
f 25/26/22 1/22/63 53/25/64 54/30/23
f 27/69/31 26/70/30 10/63/65 14/66/66
f 38/48/43 27/56/31 14/57/66 37/49/67
s 2
f 3/42/68 21/43/69 29/39/6 28/38/5
f 30/44/56 29/39/6 21/43/69 4/51/70
s 5
f 13/62/71 31/60/40 42/52/48 35/59/72
f 9/67/73 32/71/37 31/72/40 13/68/71
f 2/21/74 33/18/17 58/14/20 51/20/75
s 4
f 34/27/15 33/33/50 2/28/76 18/23/77
f 25/26/16 34/27/15 18/23/77 1/22/78
s 1
f 21/43/79 36/50/41 35/59/55 4/51/80
f 37/49/42 36/50/41 21/43/79 3/42/81
s 6
f 28/38/82 38/48/43 37/49/67 3/42/83
f 39/47/44 38/48/43 28/38/82 5/41/84
s 3
f 5/41/85 22/40/86 40/46/46 39/47/45
f 41/53/58 40/46/46 22/40/86 6/45/87
s 5
f 42/52/48 41/53/47 6/45/88 30/44/89
f 35/59/72 42/52/48 30/44/89 4/51/90
s 1
f 19/94/26 44/88/91 43/91/92 9/95/53
f 45/93/93 44/88/91 19/94/26 10/96/25
s 6
f 46/1/94 45/2/95 10/3/65 26/4/30
f 47/7/96 46/1/94 26/4/30 11/8/29
s 3
f 11/79/36 24/80/35 48/81/97 47/82/98
f 49/83/99 48/81/97 24/80/35 12/84/60
s 5
f 50/10/100 49/11/101 12/12/38 32/13/37
f 43/16/102 50/10/100 32/13/37 9/17/73
s 1
f 44/88/91 52/89/3 51/90/52 43/91/92
f 53/92/4 52/89/3 44/88/91 45/93/93
s 6
f 54/5/23 53/6/64 45/2/95 46/1/94
f 55/9/24 54/5/23 46/1/94 47/7/96
s 3
f 47/82/98 48/81/97 56/85/10 55/86/9
f 57/87/61 56/85/10 48/81/97 49/83/99
s 5
f 58/14/20 57/15/19 49/11/101 50/10/100
f 51/20/75 58/14/20 50/10/100 43/16/102
